<?xml version="1.0" encoding="utf-8"?>
<!-- Generator: Adobe Illustrator 16.0.0, SVG Export Plug-In . SVG Version: 6.00 Build 0)  -->
<!DOCTYPE svg PUBLIC "-//W3C//DTD SVG 1.1//EN" "http://www.w3.org/Graphics/SVG/1.1/DTD/svg11.dtd">
<svg version="1.1" id="Layer_1" xmlns="http://www.w3.org/2000/svg" xmlns:xlink="http://www.w3.org/1999/xlink" x="0px" y="0px"
	 width="198px" height="192px" viewBox="0 0 198 192" enable-background="new 0 0 198 192" xml:space="preserve">
<g>
	<path fill="#F0F0F0" d="M102.464,4.932c2.572,0.928,4.126,2.921,5.636,5.084c8.774,12.581,18.609,24.279,29.227,35.356
		c8.943,9.332,18.122,18.39,28.043,26.683c7.581,6.337,15.436,12.313,23.586,17.897c0.977,0.669,2.118,1.189,2.893,2.043
		c3.104,3.424,2.635,7.271-1.322,9.729c-12.242,7.61-23.174,16.897-33.89,26.441c-18.938,16.868-35.761,35.656-50.46,56.334
		c-2.113,2.975-3.908,3.584-7.423,2.562c-1.161-0.338-2.106-0.93-2.731-1.994c-3.861-6.569-8.637-12.478-13.381-18.403
		c-20.283-25.338-44.013-46.967-70.616-65.489c-1.522-1.06-2.449-2.46-3.161-4.085c0-0.72,0-1.44,0-2.16
		c0.642-1.953,2.033-3.289,3.65-4.441c1.009-0.718,2-1.461,3.018-2.166C33.608,75.805,49.918,61.258,65.046,45.34
		C75.937,33.88,85.861,21.62,95.287,8.947c1.348-1.813,2.829-3.32,5.018-4.017C101.023,4.932,101.744,4.932,102.464,4.932z
		 M170.227,96.954c-0.354-1.445-0.465-2.635-0.938-3.657c-0.733-1.583-1.593-3.141-2.611-4.556
		c-10.892-15.132-23.065-29.122-37.188-41.346c-5.469-4.732-10.942-9.463-16.584-13.983c-2.084-1.669-4.553-2.971-7.026-4.015
		c-3.917-1.654-7.738-1.215-11.163,1.512c-0.75,0.597-1.545,1.138-2.324,1.697c-9.572,6.87-18.271,14.758-26.766,22.89
		c-9.86,9.439-19.22,19.335-27.433,30.26c-1.551,2.064-2.896,4.311-4.115,6.591c-1.795,3.358-1.238,6.649,0.829,9.723
		c6.625,9.854,14.241,18.914,22.684,27.229c7.257,7.148,14.801,14.012,22.338,20.869c5.506,5.012,11.393,9.548,17.954,13.146
		c1.972,1.082,4.034,1.418,6.124,0.719c1.723-0.577,3.479-1.276,4.967-2.295c3.424-2.35,6.786-4.811,10.012-7.426
		c14.793-11.992,28.209-25.391,40.431-39.99c3.366-4.021,6.668-8.088,9.019-12.811C169.182,100.006,169.677,98.371,170.227,96.954z"
		/>
	<path fill="#F0F0F0" d="M101.479,32.155c1.877,0.689,3.85,1.048,5.393,2.06c3.398,2.229,6.67,4.679,9.826,7.246
		c3.439,2.796,6.671,5.849,10.027,8.749c10.836,9.362,20.416,19.916,29.367,31.053c2.653,3.3,5.1,6.767,7.639,10.159
		c0.215,0.288,0.396,0.602,0.611,0.888c1.954,2.579,1.996,5.079,0.33,7.958c-2.806,4.85-6.299,9.142-9.902,13.373
		c-12.371,14.534-25.914,27.862-40.926,39.67c-1.947,1.53-3.96,2.982-5.978,4.422c-0.908,0.646-1.886,1.201-2.861,1.744
		c-2.034,1.127-3.938,1.162-6.079-0.097c-6.032-3.547-11.549-7.769-16.686-12.471c-7.518-6.882-15.05-13.761-22.312-20.908
		c-7.847-7.724-14.841-16.207-21.165-25.243c-1.881-2.688-2.238-5.313-0.401-7.98c2.58-3.747,5.195-7.488,8.069-11.008
		c9.683-11.862,20.664-22.469,31.992-32.735c6.056-5.488,12.48-10.501,19.143-15.212C98.654,33.053,100.066,32.741,101.479,32.155z
		 M118.262,90.45c0.954-0.245,1.789-0.504,2.643-0.667c0.973-0.184,2.053-0.604,2.924-0.355c2.266,0.646,4.438,1.64,6.124,3.376
		c2.182,2.245,2.112,5.074-0.226,7.167c-1.863,1.668-4.054,2.797-6.451,3.557c-9.836,3.115-19.875,3.906-30.082,2.625
		c-4.643-0.582-9.231-1.483-13.565-3.346c-1.743-0.748-3.352-1.703-4.401-3.375c-0.874-1.394-1.239-2.843-0.027-4.186
		c1.192-1.321,2.333-2.867,3.837-3.688c2.39-1.304,5.055-2.111,7.623-3.078c0.89-0.335,1.835-0.52,2.92-0.819
		c-2.821-1.823-5.418-3.54-8.063-5.178c-0.484-0.3-1.211-0.495-1.749-0.38c-5.644,1.202-10.675,3.718-15.168,7.316
		c-0.586,0.47-1.114,1.042-1.571,1.641c-2.737,3.589-2.735,7.189,0.988,10.321c2.392,2.012,5.15,3.35,8.063,4.383
		c17.869,6.336,35.871,6.223,53.924,0.92c3.371-0.99,6.579-2.502,9.087-5.137c2.78-2.918,2.998-6.044,0.239-8.928
		c-1.488-1.555-3.465-2.643-5.231-3.929c-0.291-0.211-0.634-0.354-1.229-0.682c1.425-0.431,2.522-0.764,3.64-1.103
		c-5.611-1.354-11.203-2.704-16.935-4.087C116.475,85.374,117.341,87.835,118.262,90.45z M97.625,76.417
		c0,0.763,0.021,1.312-0.003,1.86c-0.22,4.87-0.45,9.739-0.673,14.608c-0.161,3.513-0.316,7.025-0.473,10.538
		c-0.023,0.513-0.165,1.14,0.64,1.146c2.739,0.02,5.481,0.008,8.401,0.008c-0.377-9.467-0.748-18.755-1.125-28.256
		c2.733,0,5.102,0,7.565,0c-3.642-9.999-7.203-19.783-10.804-29.671c-3.438,9.939-6.825,19.729-10.298,29.768
		C93.198,76.417,95.367,76.417,97.625,76.417z M107.26,140.85c-0.441-9.625-0.875-19.093-1.31-28.556c-3.377,0-6.475,0-9.673,0
		c-0.418,9.452-0.835,18.89-1.263,28.556C99.116,140.85,103.121,140.85,107.26,140.85z"/>
</g>
</svg>
