<?xml version="1.0" encoding="UTF-8" standalone="no"?>
<!-- Created with Inkscape (http://www.inkscape.org/) -->
<svg
   xmlns:svg="http://www.w3.org/2000/svg"
   xmlns="http://www.w3.org/2000/svg"
   version="1.0"
   width="956.69287"
   height="363.5433"
   id="svg2">
  <defs
     id="defs4" />
  <g
     transform="translate(316.38893,-234.9183)"
     id="layer1">
    <g
       transform="translate(35.433049,35.477367)"
       id="g2571">
      <path
         d="M -137.57603,379.82599 L -137.57603,235.24685 L -80.53624,235.24685 L -40.52541,341.58599 L -3.1652699,235.24685 L 51.88651,235.24685 L 51.88651,379.82599 L 16.51438,379.82599 L 16.51438,288.52779 L -20.41141,379.82599 L -65.7236,379.82599 L -101.21268,288.52779 L -101.21268,379.82599 L -137.57603,379.82599"
         id="path2455"
         style="fill:#a80c2f;fill-opacity:1;fill-rule:nonzero;stroke:none" />
      <path
         d="M 392.79436,300.02151 C 390.14367,304.66577 386.602,308.6418 385.72216,313.94873 C 383.28865,324.5626 387.0475,335.61639 394.78237,343.12851 C 401.86014,350.20628 411.58859,352.41704 421.53978,350.86895 C 431.03992,348.65819 440.99111,340.4834 443.86454,330.97213 C 448.06888,318.37582 444.30447,305.1057 434.79876,296.48541 C 428.61198,291.17848 421.09429,288.47211 413.13667,288.03218 L 343.45602,288.03218 L 343.45602,379.82599 L 307.01471,379.82599 L 307.01471,234.9183 L 343.45602,234.9183 L 343.45602,258.4626 L 422.85956,258.4626 C 445.1342,258.4626 465.08671,275.26324 473.71257,296.48541 C 483.44102,317.26765 478.79675,344.45942 463.09313,361.03733 C 446.51523,379.38606 423.30505,386.46383 399.64938,380.93415 C 377.98172,374.74737 355.65139,354.6278 353.21788,330.97213 C 351.45262,319.9239 353.21788,309.08729 357.86215,300.02151 L 392.79436,300.02151"
         id="path2459"
         style="fill:#a80c2f;fill-opacity:1;fill-rule:nonzero;stroke:none" />
      <path
         d="M 287.67475,268.30242 C 297.30296,278.99982 298.33316,292.94931 298.33316,306.65379 L 298.33316,379.82599 L 264.67618,379.82599 L 264.67618,334.29105 C 264.67618,317.04491 261.69694,295.0487 252.40842,290.29306 C 243.12546,285.54299 236.93311,287.86512 230.52358,291.17848 C 224.77672,294.72015 220.79513,299.91014 220.79513,306.43661 L 220.79513,358.82657 L 186.9154,358.82657 L 186.9154,258.57397 L 219.68697,258.57397 C 219.68697,262.51101 221.01231,266.565 221.89773,269.95631 C 228.08451,265.75754 233.17426,260.01068 240.25203,257.35443 C 255.94452,252.0475 275.72997,255.03787 287.67475,268.30242"
         id="path2463"
         style="fill:#a80c2f;fill-opacity:1;fill-rule:nonzero;stroke:none" />
      <path
         d="M 521.46383,259.12527 C 523.01192,261.9987 522.56643,265.31762 522.78917,268.63097 L 523.67459,269.51639 C 533.18029,253.81833 553.07712,260.67335 569.22067,259.34244 L 569.43784,288.96772 C 555.95055,288.96772 542.02333,287.20245 530.75236,291.84672 C 524.55444,295.59999 522.56643,302.01509 522.34368,308.86454 L 522.34368,379.82599 L 484.32086,379.82599 L 484.32086,259.12527 L 521.46383,259.12527"
         id="path2467"
         style="fill:#a80c2f;fill-opacity:1;fill-rule:nonzero;stroke:none" />
      <path
         d="M 170.82754,283.88353 C 178.56798,298.47342 180.11606,316.59941 179.89332,333.62838 L 178.56798,334.29105 L 99.86053,334.5138 C 98.75793,335.17647 98.98068,336.27906 99.19785,336.94173 C 108.48638,347.77835 122.19086,353.74795 136.11808,352.41704 C 147.61736,351.31445 157.1175,345.78476 166.62877,339.81516 L 167.29144,340.4834 L 167.29144,366.34426 C 159.77375,374.30188 149.16545,376.95813 139.43143,380.04873 C 114.01049,384.693 87.48139,378.94614 71.12067,357.94115 C 58.30161,341.1405 54.32002,315.27964 62.05489,294.72015 C 68.03006,277.03408 85.27063,259.12527 104.0593,255.58917 C 130.37122,248.73415 158.23123,260.8961 170.82754,283.88353 z M 129.70855,285.43162 C 123.73894,282.11827 113.78775,282.11827 108.04089,286.09429 C 101.40861,290.07588 97.64977,296.70816 97.87251,304.44303 C 98.09526,305.76837 99.63778,306.21386 100.96869,306.21386 L 138.55158,306.21386 L 140.0941,304.88295 C 140.53959,301.12967 139.43143,297.37083 138.10609,294.05191 C 136.34082,290.73855 133.02747,287.64238 129.70855,285.43162"
         id="path2471"
         style="fill:#a80c2f;fill-opacity:1;fill-rule:nonzero;stroke:none" />
      <path
         d="M -180.24868,497.70897 C -181.79677,494.83554 -180.6886,490.58665 -181.35127,487.05055 C -181.57402,486.1707 -182.01951,485.06254 -182.90493,484.83979 C -207.22327,503.8512 -245.68601,508.27272 -272.88335,492.79741 C -302.7258,477.54485 -318.20668,445.48607 -316.21867,412.54744 C -314.44227,386.01834 -297.20169,361.48282 -272.21511,351.31445 C -260.28147,346.00751 -246.13151,346.00751 -231.98154,346.00751 L -146.97036,346.00751 L -146.97036,379.82599 L -250.55302,379.82599 C -263.1549,379.82599 -279.29288,398.40304 -281.72639,414.09552 C -285.03974,433.32968 -275.97396,449.25048 -261.16689,460.52145 C -248.55944,470.2499 -229.32529,473.786 -213.41005,467.8164 C -199.92276,463.17213 -186.65821,449.46766 -183.78478,435.31769 C -183.56203,433.7696 -182.90493,430.679 -185.11012,429.79358 L -230.762,429.79358 L -230.762,397.74037 L -146.97036,397.74037 L -146.97036,497.70897 L -180.24868,497.70897"
         id="path2475"
         style="fill:#a80c2f;fill-opacity:1;fill-rule:nonzero;stroke:none" />
      <path
         d="M 298.33316,498.10434 L 264.45343,498.10434 L 264.45343,432.00434 C 264.45343,424.44767 254.39643,417.40888 245.55897,416.75178 C 236.04769,415.20369 220.68376,423.48986 220.68376,433.55243 C 220.68376,443.60943 220.68376,498.10434 220.68376,498.10434 L 186.9154,498.10434 L 186.9154,366.23289 L 220.57238,366.23289 C 220.57238,366.23289 220.12689,389.56001 221.68055,400.38548 L 222.34322,400.60823 C 233.61976,388.89177 247.9869,383.5904 264.5648,386.01834 C 279.96772,388.89177 298.33316,403.26448 298.33316,417.63719 L 298.33316,498.10434"
         id="path2479"
         style="fill:#a80c2f;fill-opacity:1;fill-rule:nonzero;stroke:none" />
      <path
         d="M -65.50642,415.42643 C -78.1083,416.97452 -98.33925,409.45683 -102.53802,426.03473 L -102.53802,497.70897 L -137.35329,497.70897 L -137.57603,386.80909 L -102.87214,386.80909 C -102.87214,386.80909 -102.31527,391.93226 -101.54123,393.75878 C -97.11971,391.77076 -93.58361,386.36916 -88.27668,386.80909 L -65.50642,386.80909 L -65.50642,415.42643"
         id="path2483"
         style="fill:#a80c2f;fill-opacity:1;fill-rule:nonzero;stroke:none" />
      <path
         d="M 307.01471,386.80909 L 343.45602,386.80909 L 343.45602,498.10434 L 307.01471,498.10434 L 307.01471,386.80909 z"
         id="path2485"
         style="fill:#a80c2f;fill-opacity:1;fill-rule:nonzero;stroke:none" />
      <path
         d="M 521.90932,416.97452 L 470.61639,416.97452 C 468.84556,417.1917 466.85754,418.51704 465.97213,420.28788 C 464.86953,422.27589 465.5322,424.92657 466.41762,426.6974 C 467.52021,429.12534 470.1709,429.57083 472.38166,430.45625 C 490.29047,431.34167 509.96455,426.48023 521.68101,441.94997 C 529.20427,451.67842 532.74037,465.82838 527.65618,477.76759 C 523.01192,488.59864 511.62401,499.20694 499.80174,499.20694 C 487.96834,499.20694 401.41464,499.20694 401.41464,499.20694 C 379.64118,499.20694 358.97031,483.2917 351.67536,463.61763 C 343.93493,443.50362 349.01911,418.2943 365.37984,403.48723 C 381.07789,387.1265 404.18227,388.67459 427.1697,388.89177 L 427.1697,416.52903 C 411.25447,416.97452 391.69176,413.6556 383.07147,429.57083 C 378.42721,436.6486 378.20446,447.91957 382.18606,455.66001 C 386.82475,464.50304 396.33046,468.59044 406.05891,469.25311 L 495.15748,469.25311 C 496.70557,468.59044 498.03091,467.37647 499.1335,465.82838 C 500.01892,463.39488 498.91076,460.73863 497.14549,458.97336 L 494.27206,457.87077 C 476.14607,456.53986 456.90635,462.50946 443.41905,449.6904 C 433.25068,440.1847 428.61198,425.59481 433.46785,411.44484 C 437.00952,400.83097 450.66388,386.85921 461.43924,386.85921 L 521.90932,386.85921 L 521.90932,416.97452"
         id="path2489"
         style="fill:#a80c2f;fill-opacity:1;fill-rule:nonzero;stroke:none" />
      <path
         d="M -63.62422,412.10194 C -52.52031,390.99115 -30.35147,384.91574 -7.8039599,388.01192 C 0.37640011,389.56001 8.1168401,392.43343 15.18904,396.6322 C 18.72514,395.08412 14.30362,386.14642 20.05605,386.80909 L 52.10369,386.80909 L 52.10369,497.70897 L 17.61697,497.70897 C 17.18262,495.72095 17.3998,493.68282 15.41178,492.35748 C -0.95450989,500.53785 -23.50202,502.52586 -39.64,492.79741 C -61.08491,481.52644 -72.14427,459.19611 -70.15069,435.76318 C -69.26527,429.12534 -66.90973,418.34441 -63.62422,412.10194 z M 0.15365011,413.6556 C -12.22548,411.88477 -23.72476,417.40888 -29.69437,427.80557 C -34.77299,436.20311 -33.89314,449.25048 -28.36346,457.2081 C -21.95393,466.93098 -10.46021,471.13532 1.0390701,469.14174 C 7.2314201,467.8164 14.52637,464.05755 16.73713,457.87077 C 16.51438,446.81698 17.18262,434.66059 16.29163,423.38405 C 12.09286,418.2943 6.3404401,414.76376 0.15365011,413.6556"
         id="path2493"
         style="fill:#a80c2f;fill-opacity:1;fill-rule:nonzero;stroke:none" />
      <path
         d="M 63.93709,386.80909 L 98.98068,386.80909 C 98.98068,386.80909 98.75793,392.21069 100.96869,392.87336 C 108.48638,389.99993 115.9985,386.90375 124.40161,386.24108 C 148.27446,384.03033 171.05028,399.28289 179.89332,421.39047 C 187.62819,441.94997 182.10408,466.93098 166.84595,482.18911 C 151.59338,498.10434 127.49779,502.97135 106.93829,496.11076 C 104.94471,495.67084 102.73395,493.68282 100.5232,494.78542 L 99.86053,496.11076 L 99.86053,527.50687 L 63.93709,527.50687 L 63.93709,386.80909 z M 124.40161,413.87278 C 115.11866,412.99293 105.60738,415.20369 100.08327,422.05314 L 100.08327,460.30427 L 101.19144,462.50946 C 108.26363,467.8164 117.32941,471.13532 126.83512,468.47907 C 135.45541,466.93098 143.41302,459.19611 146.28645,451.01575 C 148.71996,442.61821 147.83454,432.44426 142.75035,425.59481 C 138.10609,419.18528 131.47381,415.64361 124.40161,413.87278"
         id="path2497"
         style="fill:#a80c2f;fill-opacity:1;fill-rule:nonzero;stroke:none" />
      <path
         d="M 533.197,402.15075 C 533.197,393.03485 540.58104,386.31905 549.31827,386.31905 C 557.9664,386.31905 565.36715,393.03485 565.36715,402.15075 C 565.36715,411.35018 557.9664,418.06598 549.31827,418.06598 C 540.58104,418.06598 533.197,411.35018 533.197,402.15075 z M 549.31827,415.42643 C 556.50741,415.42643 562.17074,409.79652 562.17074,402.15075 C 562.17074,394.63306 556.50741,388.96416 549.31827,388.96416 C 542.05674,388.96416 536.38227,394.63306 536.38227,402.15075 C 536.38227,409.79652 542.05674,415.42643 549.31827,415.42643 z M 546.24994,410.45362 L 543.7162,410.45362 L 543.7162,393.73093 L 550.08118,393.73093 C 554.03493,393.73093 555.98953,395.18992 555.98953,398.48657 C 555.98953,401.48251 554.11289,402.78557 551.65711,403.09185 L 556.41275,410.45362 L 553.5783,410.45362 L 549.16235,403.20879 L 546.24994,403.20879 L 546.24994,410.45362 z M 549.27929,401.05929 C 551.42323,401.05929 553.34441,400.90894 553.34441,398.33621 C 553.34441,396.26467 551.46778,395.886 549.69694,395.886 L 546.24994,395.886 L 546.24994,401.05929 L 549.27929,401.05929"
         id="path2501"
         style="fill:#a80c2f;fill-opacity:1;fill-rule:nonzero;stroke:none" />
    </g>
  </g>
</svg>
